<?xml version="1.0" standalone="no"?>
<!DOCTYPE svg PUBLIC "-//W3C//DTD SVG 20010904//EN"
 "http://www.w3.org/TR/2001/REC-SVG-20010904/DTD/svg10.dtd">
<svg version="1.0" xmlns="http://www.w3.org/2000/svg"
 width="874.000000pt" height="874.000000pt" viewBox="0 0 874.000000 874.000000"
 preserveAspectRatio="xMidYMid meet">
<metadata>
Created by potrace 1.11, written by Peter Selinger 2001-2013
</metadata>
<g transform="translate(0.000000,874.000000) scale(0.100000,-0.100000)"
fill="#000000" stroke="none">
<path d="M4115 8733 c-1670 -106 -3113 -1128 -3770 -2668 -62 -146 -176 -489
-214 -645 -136 -560 -163 -1125 -81 -1685 163 -1112 747 -2115 1638 -2812 123
-97 405 -286 538 -361 499 -282 1073 -468 1664 -537 186 -22 598 -30 790 -16
570 44 1095 183 1596 425 1235 597 2123 1748 2388 3096 60 303 71 435 71 840
0 412 -10 521 -75 853 -204 1040 -797 1986 -1648 2630 -766 581 -1710 894
-2662 885 -102 -1 -207 -3 -235 -5z m50 -2803 c302 -16 648 -57 879 -104 l60
-12 -190 -46 c-347 -86 -615 -182 -884 -319 -429 -217 -708 -467 -851 -764
-73 -152 -84 -203 -83 -385 0 -142 2 -162 28 -240 152 -461 645 -847 1410
-1106 158 -53 499 -144 540 -144 12 0 16 -4 11 -9 -23 -23 -501 -89 -790 -111
-179 -13 -689 -13 -870 0 -939 68 -1742 319 -2272 711 -135 99 -305 272 -380
387 -190 289 -219 598 -84 888 58 124 124 216 240 336 264 274 631 485 1136
653 627 208 1377 303 2100 265z m2040 -480 c77 -6 193 -17 258 -26 200 -25
394 -64 323 -64 -10 0 -80 -16 -155 -35 -622 -157 -1082 -441 -1255 -775 -63
-121 -80 -186 -80 -305 -1 -120 13 -184 64 -290 163 -342 633 -642 1253 -800
92 -23 170 -45 173 -47 2 -3 -51 -15 -118 -26 -886 -155 -1875 -38 -2538 299
-657 333 -873 829 -555 1274 64 90 219 233 341 315 385 257 966 431 1599 479
162 12 529 12 690 1z m1428 -300 c157 -9 439 -44 480 -59 13 -5 -28 -19 -122
-44 -487 -127 -837 -360 -948 -629 -37 -91 -43 -221 -15 -314 62 -201 239
-374 527 -515 163 -79 269 -118 450 -164 72 -19 123 -36 115 -39 -22 -8 -179
-33 -300 -48 -157 -19 -640 -16 -805 6 -717 94 -1241 370 -1376 725 -14 35
-23 89 -26 146 -5 79 -2 100 21 170 148 439 865 751 1776 773 30 1 131 -3 223
-8z"/>
</g>
</svg>
